PathFileType	4	(X/Y/Z)	C:/Users/beibeiliu/ov580/test_trc/capture2\sequence.10_training_dense_right.trc
DataRate	CameraRate	NumFrames	NumMarkers	Units	OrigDataRate	OrigDataStartFrame	OrigNumFrames
120	120	8	19	mm	120	175	349
Frame#	Time	ThumbCMC			ThumbMCP			ThumbIP			ThumbTip			IndexMCP			IndexPIP			IndexTip			MiddleMCP			MiddlePIP			MiddleTip			RingMCP			RingPIP			RingTip			PinkyMCP			PinkyPIP			PinkyTip			BackHand1			BackHand2			BackHand3	
		X0	Y0	Z0	X1	Y1	Z1	X2	Y2	Z2	X3	Y3	Z3	X4	Y4	Z4	X5	Y5	Z5	X6	Y6	Z6	X7	Y7	Z7	X8	Y8	Z8	X9	Y9	Z9	X10	Y10	Z10	X11	Y11	Z11	X12	Y12	Z12	X13	Y13	Z13	X14	Y14	Z14	X15	Y15	Z15	X16	Y16	Z16	X17	Y17	Z17	X18	Y18	Z18	
174	1.45	156.557	46.7572	-26.609	139.959	63.8288	-50.7851	131.22	73.5805	-70.7839	117.527	69.139	-96.2571	146.196	42.3446	-98.9481	120.353	55.398	-94.0786	124.271	46.3397	-59.1483	133.834	20.7774	-100.008	108.487	37.9365	-94.8891	115.969	40.0112	-56.9769	120.97	8.06816	-93.6613	99.4007	27.8674	-77.4819	116.144	22.0435	-49.1302	111.365	-4.17943	-82.7438	95.6075	16.2208	-70.177	117.771	16.9465	-44.9912	154.21	-14.6536	-51.762	154.425	-17.4869	-19.3745	171.045	12.2653	-34.8776	
175	1.45833	156.862	46.0096	-28.5105	140.564	63.8007	-51.1064	132.064	74.1745	-74.6709	118.888	64.2414	-92.7502	147.316	39.9412	-96.6632	120.422	54.2925	-91.8685	127.912	47.233	-57.5385	135.511	23.2538	-98.8139	108.063	41.5757	-88.2555	115.433	34.3469	-55.5164	118.896	9.7194	-92.9286	101.556	28.3462	-76.2402	116.802	23.3507	-50.2466	109.018	-1.73256	-83.4347	98.8645	18.571	-67.0033	116.585	14.744	-40.5676	152.232	-18.0351	-49.3856	154.52	-14.4991	-18.4783	172.227	9.03972	-36.8725	
176	1.46667	156.546	44.7481	-27.9438	141.266	62.9146	-50.6542	131.573	73.7092	-76.1505	118.011	60.7547	-94.0635	144.975	39.1145	-97.4284	121.479	55.9044	-89.8085	126.177	47.8309	-58.2177	131.713	23.338	-99.3241	108.654	40.5595	-86.57	118.591	32.8435	-52.3922	120.378	13.427	-92.6985	102.667	28.855	-78.0713	120.295	20.7851	-46.3752	110.868	-2.00105	-82.0107	95.2601	15.0151	-64.4364	115.792	11.4756	-39.7779	150.47	-16.3067	-53.7644	154.649	-16.6354	-18.1987	169.916	10.3633	-36.4018	
177	1.475	156.523	46.59	-26.3664	139.559	65.2177	-49.0146	129.831	68.3696	-76.1924	116.441	65.5058	-96.9253	147.321	43.4317	-96.257	119.579	52.4242	-86.7647	126.473	44.5188	-57.1232	134.089	20.8975	-96.4603	109.791	42.0581	-83.9357	122.52	32.9016	-49.0935	118.263	7.95443	-90.7589	99.9908	26.5038	-74.35	119.723	21.2412	-45.7186	109.768	-4.94606	-79.9202	98.1288	16.9034	-65.5732	121.538	12.4506	-41.7279	153.126	-16.1525	-48.7033	154.604	-18.1979	-17.6078	172.754	10.5015	-34.1209	
178	1.48333	156.263	44.3411	-26.2938	138.89	63.9882	-52.3659	129.341	73.6244	-75.8053	116.385	63.8568	-97.4665	149.176	41.4513	-93.8068	120.121	53.2337	-88.4583	127.877	43.8743	-55.0284	134.383	22.6093	-95.4514	109.741	40.3091	-85.91	124.127	32.1259	-48.764	119.349	12.3966	-90.6454	99.5956	24.7485	-72.4031	118.798	19.5707	-44.8579	113.925	-3.06453	-78.8663	99.4774	17.0432	-63.1096	119.077	11.3858	-37.7482	152.439	-14.4569	-50.5527	154.966	-18.2742	-20.0228	169.772	9.33379	-35.7305	
179	1.49167	157.19	45.7475	-29.5676	138.986	61.9144	-49.8168	128.942	69.0936	-71.4259	116.014	60.092	-93.8028	144.02	40.6953	-96.946	121.505	55.6601	-85.6412	125.575	41.0015	-57.4744	135.043	21.9609	-95.7696	107.918	36.7079	-85.4253	119.998	31.364	-49.8542	118.036	8.84503	-89.6963	103.185	28.2399	-70.3628	123.25	19.6045	-43.9043	111.884	1.03953	-78.648	100.467	16.9763	-61.567	122.546	10.1836	-36.1744	151.912	-16.7427	-49.903	154.158	-18.0479	-17.8616	172.208	9.91675	-35.0293	
180	1.5	155.753	44.4438	-28.2071	137.812	64.0494	-47.3137	126.682	68.6015	-74.5328	112.972	61.9994	-96.2593	147.553	38.9469	-93.7029	119.256	52.0052	-84.6304	128.699	43.1525	-54.1089	132.877	24.0993	-95.8436	109.864	40.0494	-83.5773	120.977	31.8198	-48.92	122.279	12.6988	-88.408	102.348	27.6	-66.6098	121.427	20.9065	-43.2238	113.698	-2.6797	-78.0005	99.8096	16.9676	-59.1074	121.369	8.99435	-35.5238	152.356	-17.8693	-54.0122	156.522	-18.3582	-16.8099	173.073	9.69864	-34.5593	
181	1.50833	155.201	45.8203	-30.2341	136.014	63.4929	-50.7173	124.535	69.2285	-72.4492	111.271	57.3389	-93.8672	148.031	42.0916	-93.826	120.81	53.6038	-83.9442	129.03	42.3727	-56.0834	133.684	21.4881	-95.1921	108.825	39.4164	-83.1667	123.381	35.6443	-48.2262	119.054	8.66274	-88.3353	101.548	26.5944	-67.3014	123.776	23.5397	-43.7887	109.277	-0.549908	-78.1082	101.634	17.5841	-57.4343	120.196	12.9093	-34.6856	154.901	-13.6267	-50.2419	157.226	-15.7221	-20.0322	170.328	10.3106	-34.4482	
